<svg id="Group_277" data-name="Group 277" xmlns="http://www.w3.org/2000/svg" xmlns:xlink="http://www.w3.org/1999/xlink" width="1345.2" height="924.531" viewBox="0 0 1345.2 924.531">
  <defs>
    <clipPath id="clip-path">
      <rect id="Rectangle_82" data-name="Rectangle 82" width="1345.2" height="924.531" fill="#072d5f"/>
    </clipPath>
  </defs>
  <g id="Group_273" data-name="Group 273" transform="translate(0 0)" clip-path="url(#clip-path)">
    <path id="Path_136" data-name="Path 136" d="M1197.541,221.874c-17.784-7.049-32.665,2.682-37.638,15.233-8.3,20.918,18.949,34.7,12.7,50.464-1.762,4.452-6.015,8.85-10.873,13.018a67.839,67.839,0,0,0,23.14-3.954l3.54-1.257a58.074,58.074,0,0,0,23.677-20.244,46.047,46.047,0,0,0,4.322-8.176c6.889-17.371-.444-37.775-18.872-45.085m7.486,40.281a34.6,34.6,0,0,1-2.873,6.184,40.135,40.135,0,0,1-6.26,8.053,39.355,39.355,0,0,0,4.521-20.911c-1.019-14.88-10.452-24.129-12.8-26.3.613.146,1.234.329,1.87.544,13.815,4.682,19.96,19.409,15.547,32.435" transform="translate(-270.773 -51.313)" fill="#072d5f"/>
    <path id="Path_137" data-name="Path 137" d="M1262.4,388.632c-49.085,16.512-104.185-37.17-63.077-88.01,26.19-32.381,20.367-56.51,6.39-68.586-.214-.184-.429-.368-.644-.544-16.758-13.8-44.342-10.766-43.706,15.332,1.188,48.579-48.441,66.463-77.6,36.243s-87.673-66.54-154.12,9.065-145.554,22.129-87.328-29.408-36.028-105.756-63.659-50.28v.008c-37.492,75.267-55.629,81.022-65.674,78.049-20.152-5.977-6.475-54.15-33.8-75.444-19.853-15.463-50.863-1.41-76.4,2.345C421.827,243.975,587.663,60.569,534.647,9.821,520.755-3.481,491.96-2.96,478.9,9.507c-16.022,15.3-10.7,50.909-6.827,76.8,2.13,14.283,4.467,19.861,2.237,30.3-3.149,14.673-14.183,33.607-32.565,38.6-15.861,4.314-29.83-3.747-46.288-13.248C372.65,128.794,337.908,86.9,282.969,93.54a.977.977,0,0,0-.222.054c-12.129,2.988-23.508,8.712-31.515,18.16-.536.628-1.05,1.28-1.555,1.939-62.885,82.884-7.532,171.522,96.776,187.72,103.587,16.083,57.376,152.2-14.612,78.777s-146.8-35.546-127.7,26-24.872,104.53-76.432,80.462C55.1,452.759,4.336,495.262.259,538.738c-3.808,40.626,34.8,82.378,89.289,55.767,46.526-22.719,108.116,23.378,73.934,79.106-19.968,32.557-14.145,54.747-1.142,66.042l.835.7c.038.031.077.061.107.084,18.236,14.742,49.07,9.065,44.8-18.4-7.463-48.02,39.43-72.179,72.264-45.982s95.534,54.64,151.646-28.941,141.47-40.779,90.408,17.861,49.415,100.2,69.628,41.614c14.719-42.649,85.841-26.144,123.464-14,19.248,6.214,36.68,17.47,49.361,33.239,8.176,10.176,14.52,22.267,14.873,36.3.422,16.681-7.984,21.485-20.443,49.047-10.237,22.673-34.1,75.49-13.915,99.611,12.344,14.75,40.679,18.19,55.238,7.525,17.869-13.1,17.2-49.1,16.712-75.267-.268-14.436-1.862-20.275,1.7-30.335,5.011-14.137,18.405-31.485,37.285-34.059,16.29-2.222,30.42,6.03,44.181,19.125,19.286,18.367,15.064,20.7,35.369,37.1,24.642,19.907,51.039,27.355,69.9,25.47a62.089,62.089,0,0,0,39.269-19.485q2.529-2.735,4.85-5.5l.368-.437c60.349-72.425,16.413-160.634-80.524-188.923-100.63-29.354-37.185-158.358,24.688-76.225s140.972,54.249,129.992-9.248,38.189-100.43,86.2-69.9c67.613,43.009,123.44,7.425,133.11-35.147,9.042-39.8-23.845-86.194-81.313-66.862M292.432,250.427c-32.481-6.735-50.457-38.266-44.1-68.892a78.335,78.335,0,0,1,4.766-14.75,91.585,91.585,0,0,1,11.892-19.914,89.32,89.32,0,0,0-4.383,48.449c6.429,33.293,30.289,51.552,36.189,55.813-1.41-.161-2.873-.4-4.36-.7M50,586.651c-22.336-4.46-34.833-26.014-30.626-47.078a53.692,53.692,0,0,1,3.2-10.153,63.045,63.045,0,0,1,8.061-13.731,61.321,61.321,0,0,0-2.774,33.285c4.582,22.834,21.056,35.247,25.133,38.143-.973-.1-1.984-.26-3-.467m334.875,57.766c-12,23.707-40.135,31.025-62.494,19.708a61.939,61.939,0,0,1-10.406-6.766A73.279,73.279,0,0,1,299.053,644,71.511,71.511,0,0,0,335.6,657.52c27.094,1.984,46.2-12.658,50.725-16.328-.421,1.065-.912,2.145-1.456,3.226m176.8,70.448a36.914,36.914,0,0,1-7.318,1.31,43.487,43.487,0,0,1-11.1-.529,42.839,42.839,0,0,0,21.478-9.08c12.635-10.237,14.965-24.451,15.44-27.906.245.636.483,1.3.682,2,4.482,15.263-4.789,29.975-19.179,34.2m247.3-492.513c-13.846,8.505-18,22.3-18.911,25.669-.169-.659-.307-1.356-.422-2.077-2.467-15.708,8.635-29.1,23.447-31.431a38.1,38.1,0,0,1,7.417-.36,43.9,43.9,0,0,1,10.942,1.969,42.809,42.809,0,0,0-22.474,6.229m221.534,63.191c-26.6-5.479-47.445,6.574-52.41,9.624.552-1,1.18-2.008,1.862-3,14.972-21.96,43.813-25.569,64.517-11.463a62.833,62.833,0,0,1,9.448,8.061A73.292,73.292,0,0,1,1065,303.68a71.5,71.5,0,0,0-34.5-18.137" transform="translate(0 -0.001)" fill="#072d5f" fill-rule="evenodd"/>
    <path id="Path_138" data-name="Path 138" d="M596.441,907.788c1.18-4.643,4.82-9.555,9.1-14.321a67.9,67.9,0,0,0-22.435,6.919l-3.348,1.709A58.054,58.054,0,0,0,558.9,925.227a45.918,45.918,0,0,0-3.226,8.674c-4.582,18.114,5.333,37.4,24.55,42.258,18.543,4.689,32.044-6.888,35.354-19.968,5.517-21.822-23.286-31.967-19.133-48.4M587.2,967.34c-14.306-2.858-22.313-16.673-19.616-30.159a34.406,34.406,0,0,1,2.046-6.5,40.515,40.515,0,0,1,5.164-8.8,39.257,39.257,0,0,0-1.77,21.317c2.935,14.627,13.486,22.573,16.091,24.435-.621-.069-1.264-.169-1.916-.3" transform="translate(-129.637 -208.862)" fill="#072d5f"/>
  </g>
</svg>
