<svg xmlns="http://www.w3.org/2000/svg" xmlns:xlink="http://www.w3.org/1999/xlink" width="1065.993" height="1204.302" viewBox="0 0 1065.993 1204.302">
  <defs>
    <clipPath id="clip-path">
      <rect id="Rectangle_78" data-name="Rectangle 78" width="1153.179" height="1007.02" fill="#072d5f"/>
    </clipPath>
  </defs>
  <g id="Group_267" data-name="Group 267" transform="translate(1065.993 52.703) rotate(93)">
    <g id="Group_266" data-name="Group 266" clip-path="url(#clip-path)">
      <path id="Path_129" data-name="Path 129" d="M379.443,211.836c-.8.775-1.612,1.5-2.424,2.156,1.979-4.969,9.587-25.709.442-48.9a65.626,65.626,0,0,0-21.822-28.329,67.291,67.291,0,0,1,15.227,7.669,57.234,57.234,0,0,1,8.775,7.271c16.017,16.5,17.3,43.147-.2,60.137" transform="translate(508.865 195.68)" fill="#072d5f"/>
      <path id="Path_130" data-name="Path 130" d="M318.209,168.058c-.085,1.855-.248,3.671-.486,5.4-3.274-8.314-17.74-42.28-55.418-60.069a109.671,109.671,0,0,0-59-9.534,112.5,112.5,0,0,1,27.323-8.085,95.972,95.972,0,0,1,19.009-1.184c38.385,1.762,70.441,32.758,68.569,73.472" transform="translate(290.902 135.221)" fill="#072d5f"/>
      <path id="Path_131" data-name="Path 131" d="M1116.3,530.3c-136.793,29.1-205.078-64.466-187.872-157.949s-148.32-113.81-124.377,3.022S681.729,484.944,669.869,331.023c-1.649-21.4-5.1-40-9.99-56.131-30.311-100.01-115.907-105.718-170.667-96.932-63.6,10.2-107.99-57.436-61.8-115.912s-101.128-109.006-96.1,31.013c3.6,100.2-113.423,115.295-158.408,49.844C120.234,66.273,37.18,92.881,11.612,150.01c-27.354,61.114,8.348,156.172,130.867,165.7,87.012,6.767,113.289,97.348,41.351,165.11s-.622,174.785,150.9,131.061S445.255,784.771,294.807,728.1c-147.586-55.6-284.992,15.638-272.2,165.518,2.071,24.262,12.458,47.287,30.288,63.868.1.095.2.19.3.284C244.248,1134.195,955.311,643.646,1116.3,530.3Z" transform="translate(4.208 4.207)" fill="#072d5f"/>
      <path id="Path_132" data-name="Path 132" d="M364.281,78.775c28.3,7.728,37.588,33.371,32.136,53.337-9.094,33.3-55.209,25.115-62.059,50.2-1.933,7.081-.775,16.386,1.342,25.976A104.244,104.244,0,0,1,310.96,182.13l-3.182-4.811c-7.492-14.359-11.415-30.458-10.392-46.621a69.952,69.952,0,0,1,2.232-14.016C307.168,89.038,334.957,70.768,364.281,78.775Z" transform="translate(425.283 110.004)" fill="#072d5f"/>
      <path id="Path_133" data-name="Path 133" d="M356.217,85.824c.968.318,1.9.671,2.786,1.05-4.881.51-24.974,3.167-39.922,20.48a60.228,60.228,0,0,0-13.72,29.8,61.881,61.881,0,0,1-.258-15.64,52.781,52.781,0,0,1,2.166-10.229c6.578-20.045,27.687-32.442,48.947-25.466" transform="translate(436.016 119.998)" fill="#fff"/>
      <path id="Path_134" data-name="Path 134" d="M146.021,315c2.21.707,4.341,1.493,6.349,2.343-11.087,1.237-56.733,7.613-90.439,47.226a136.947,136.947,0,0,0-30.7,68A140.537,140.537,0,0,1,30.384,397a119.736,119.736,0,0,1,4.764-23.3C49.772,328.024,97.563,299.483,146.021,315" transform="translate(42.4 444.619)" fill="#072d5f"/>
      <path id="Path_135" data-name="Path 135" d="M96.017,54.352c1.512.5,2.973,1.048,4.349,1.641-7.618.795-38.988,4.944-62.327,31.973a94,94,0,0,0-21.416,46.529,96.4,96.4,0,0,1-.4-24.415A82.324,82.324,0,0,1,19.6,94.108C29.872,62.816,62.827,43.462,96.017,54.352" transform="translate(22.365 73.394)" fill="#fff"/>
      <path id="Path_158" data-name="Path 158" d="M80.387,3.058c1.512.5,2.973,1.048,4.349,1.641-7.618.795-38.988,4.944-62.327,31.973A94,94,0,0,0,.993,83.2a96.4,96.4,0,0,1-.4-24.415A82.324,82.324,0,0,1,3.973,42.814C14.241,11.522,47.2-7.833,80.387,3.058" transform="translate(620.215 204.712) rotate(82)" fill="#fff"/>
    </g>
  </g>
</svg>
