<svg id="Group_262" data-name="Group 262" xmlns="http://www.w3.org/2000/svg" xmlns:xlink="http://www.w3.org/1999/xlink" width="2259.553" height="158.623" viewBox="0 0 2259.553 158.623">
  <defs>
    <clipPath id="clip-path">
      <rect id="Rectangle_75" data-name="Rectangle 75" width="2259.553" height="158.623" fill="none" stroke="#072d5f" stroke-width="1"/>
    </clipPath>
  </defs>
  <g id="Group_261" data-name="Group 261" clip-path="url(#clip-path)">
    <path id="Path_128" data-name="Path 128" d="M29.358,137.194C20.193,121.5,4.149,118.749,4.329,105.237c.191-14.442,18.764-29.5,37.832-31.456C45.875,73.4,58.014,72.659,79,85.3c38.976,23.483,38.208,50.82,55.7,51.788,21.852,1.209,28.63-38.794,73.682-55.62,51.515-19.239,69.095,29.868,101.441,26.8,14.294-1.357,24.627-12.7,37.927-17.575,24.491-8.972,78.073,29.277,110.05,19.239,32.6-10.232,21.243-54.882,52.5-66.561,30.2-11.284,54.936,24.939,130.7,51.68,36.074,12.731,112.57,39.728,154.811,11.076,24.007-16.284,23.182-41.2,58.241-56.71,5.854-2.589,20.613-8.412,45.3-8.861,62.234-1.131,114.878,33.216,144.358,48.735,115.142,60.613,287.3,50.047,327.046-5.317,17.221-23.989,6.179-51.653,34.347-69.114,21.431-13.285,55.291-14.3,67.2-1.329,11,11.98-4.418,27.514,0,55.823,0,0,4.1,26.234,32.854,54.494,43.416,42.662,151.279,30.995,216.538,21.266,224.343-33.444,291.691-95.63,427.6-75.317a404.818,404.818,0,0,1,107.522,31.9" transform="translate(0.535)" fill="none" stroke="#072d5f" stroke-width="8.655"/>
  </g>
</svg>
