<svg id="Group_100" data-name="Group 100" xmlns="http://www.w3.org/2000/svg" xmlns:xlink="http://www.w3.org/1999/xlink" width="30.001" height="30" viewBox="0 0 30.001 30">
  <defs>
    <clipPath id="clip-path">
      <rect id="Rectangle_38" data-name="Rectangle 38" width="30.001" height="30" fill="#072d5f"/>
    </clipPath>
  </defs>
  <g id="Group_99" data-name="Group 99" transform="translate(0 0)" clip-path="url(#clip-path)">
    <path id="Path_42" data-name="Path 42" d="M15,0c-4.074,0-4.584.017-6.185.09a11,11,0,0,0-3.641.7A7.344,7.344,0,0,0,2.518,2.517,7.355,7.355,0,0,0,.788,5.174a11,11,0,0,0-.7,3.641C.018,10.416,0,10.926,0,15s.018,4.584.091,6.184a10.989,10.989,0,0,0,.7,3.641,7.352,7.352,0,0,0,1.73,2.657,7.348,7.348,0,0,0,2.657,1.73,11.015,11.015,0,0,0,3.641.7c1.6.073,2.111.09,6.185.09s4.584-.017,6.185-.09a11.02,11.02,0,0,0,3.641-.7,7.674,7.674,0,0,0,4.387-4.388,10.989,10.989,0,0,0,.7-3.641c.073-1.6.091-2.111.091-6.184s-.018-4.585-.091-6.185a11,11,0,0,0-.7-3.641,7.351,7.351,0,0,0-1.73-2.657A7.35,7.35,0,0,0,24.826.788a11.007,11.007,0,0,0-3.641-.7C19.585.017,19.075,0,15,0m0,2.7c4.005,0,4.479.016,6.062.088a8.287,8.287,0,0,1,2.785.516,4.645,4.645,0,0,1,1.725,1.122,4.642,4.642,0,0,1,1.122,1.725,8.3,8.3,0,0,1,.516,2.785c.072,1.582.088,2.056.088,6.062s-.015,4.479-.088,6.061a8.312,8.312,0,0,1-.516,2.785,4.97,4.97,0,0,1-2.847,2.847,8.284,8.284,0,0,1-2.785.517c-1.581.072-2.056.087-6.062.087s-4.48-.016-6.061-.087a8.285,8.285,0,0,1-2.786-.517,4.641,4.641,0,0,1-1.725-1.122,4.648,4.648,0,0,1-1.122-1.725,8.312,8.312,0,0,1-.516-2.785C2.718,19.48,2.7,19.005,2.7,15s.015-4.48.088-6.062a8.3,8.3,0,0,1,.516-2.785A4.642,4.642,0,0,1,4.429,4.429,4.641,4.641,0,0,1,6.154,3.307a8.288,8.288,0,0,1,2.786-.516C10.521,2.718,10.995,2.7,15,2.7" transform="translate(0 0)" fill="#072d5f"/>
    <path id="Path_43" data-name="Path 43" d="M24.131,29.938a5,5,0,1,1,5-5,5,5,0,0,1-5,5m0-12.7a7.7,7.7,0,1,0,7.7,7.7,7.7,7.7,0,0,0-7.7-7.7" transform="translate(-9.472 -9.938)" fill="#072d5f"/>
    <path id="Path_44" data-name="Path 44" d="M52.88,14.064a1.8,1.8,0,1,1-1.8-1.8,1.8,1.8,0,0,1,1.8,1.8" transform="translate(-28.414 -7.071)" fill="#072d5f"/>
  </g>
</svg>
