<svg xmlns="http://www.w3.org/2000/svg" xmlns:xlink="http://www.w3.org/1999/xlink" width="154.847" height="82.047" viewBox="0 0 154.847 82.047">
  <defs>
    <clipPath id="clip-path">
      <rect id="Rectangle_86" data-name="Rectangle 86" width="154.847" height="82.047" fill="none"/>
    </clipPath>
  </defs>
  <g id="Group_279" data-name="Group 279" transform="translate(0 0)">
    <g id="Group_279-2" data-name="Group 279" transform="translate(0 0)" clip-path="url(#clip-path)">
      <path id="Path_140" data-name="Path 140" d="M152.091,28.144a33.988,33.988,0,0,0-11.663-12.669,63.584,63.584,0,0,0-16.254-7.688A108.729,108.729,0,0,0,106.9,3.78c-1.006-.146-2.012-.259-2.985-.389-1.476-.178-2.871-.357-4.235-.616-.567-.114-1.151-.227-1.718-.341-3.019-.6-6.149-1.233-9.327-1.589A144.244,144.244,0,0,0,73.288,0a132,132,0,0,0-34.4,4.542c-9.6,2.6-17.487,6.034-24.106,10.592C8.89,19.174,4.965,23.407,2.45,28.452a21.558,21.558,0,0,0-.664,18.574,32.268,32.268,0,0,0,9.293,12.117c5.176,4.412,11.161,7.819,20.05,11.42l.177.065.179.049c.762.211,1.735.551,2.742.941.422.162.843.308,1.3.47a4.924,4.924,0,0,0,3.2,4.2,6.4,6.4,0,0,0,2.206.422,5.1,5.1,0,0,0,1.995-.405,4.183,4.183,0,0,0,1.8-1.508c2.353.6,4.754,1.119,7.171,1.589a158.447,158.447,0,0,0,29.75,2.822c1.038,0,2.108-.016,3.161-.032.195,0,.405-.016.6-.016h.244c.358,0,.682-.016.974-.032,2.465-.081,4.882-.211,7.217-.389a4.613,4.613,0,0,0,1.7,2.4,4.753,4.753,0,0,0,2.854.908,5.738,5.738,0,0,0,2.255-.47,6.406,6.406,0,0,0,3.423-3.958,107.794,107.794,0,0,0,19.287-4.656c8-2.773,14.437-6.277,19.66-10.738,5.628-4.785,9.2-10.073,10.884-16.14a24.325,24.325,0,0,0-1.816-17.941" transform="translate(0 0)" fill="#fff"/>
      <path id="Path_141" data-name="Path 141" d="M150.947,45.166c-1.67,6.018-5.272,10.673-9.895,14.615a57.185,57.185,0,0,1-18.671,10.171l-1.168.389c.47-.487,1.022-1.1,1.557-1.752v-.016c1.151-.389,2.3-.843,3.439-1.331,6.667-2.773,12.75-6.391,17.617-11.825a24.777,24.777,0,0,0,6.229-11.857c1.395-7.3-.909-13.561-5.872-19.011-4.3-4.753-9.684-7.884-15.475-10.381A84.741,84.741,0,0,0,113.1,9.334c-2.157-.47-4.331-.909-6.521-1.169a49.6,49.6,0,0,1,11.355,6.149,1.82,1.82,0,0,1-.081.211,1.236,1.236,0,0,1-.324-.1c-.941-.551-1.865-1.1-2.806-1.671-1.688-.989-3.439-1.865-5.191-2.708a33.26,33.26,0,0,0-6.846-2.466,52.165,52.165,0,0,0-6.91-.827C84.293,5.668,72.825,5.408,61.325,5.441a57.144,57.144,0,0,0-8.5.162C42.07,7.257,31.7,10.177,22.1,15.319A42.29,42.29,0,0,0,8.816,25.847c-2.936,3.666-4.866,7.77-4.8,12.669.065,5.5,2.515,10.008,6.115,14,4.607,5.111,10.349,8.614,16.449,11.55A84.534,84.534,0,0,0,36.2,67.925l-.276.957c-1.347-.5-2.612-.989-3.715-1.3-7.187-2.888-13.626-6.116-19.238-10.9A29.57,29.57,0,0,1,4.518,45.734,18.3,18.3,0,0,1,5.1,29.853c2.58-5.191,6.635-8.971,11.307-12.15A74.658,74.658,0,0,1,39.588,7.533a131.2,131.2,0,0,1,48.7-3.617c3.618.405,7.2,1.184,10.8,1.9,2.4.47,4.884.665,7.333,1.022a107.823,107.823,0,0,1,16.8,3.893,60.871,60.871,0,0,1,15.507,7.331,30.69,30.69,0,0,1,10.626,11.5,20.937,20.937,0,0,1,1.589,15.6" transform="translate(0.041 0.042)" fill="#1699da"/>
      <path id="Path_142" data-name="Path 142" d="M116.43,41.433c-1.735,0-3.228,1.249-3.1,4.137v.487c0,.081-.016.146-.016.227v.065a1.25,1.25,0,0,0-.031.243l-.05.243a4.093,4.093,0,0,1-.114.438.718.718,0,0,1-.064.162,4.791,4.791,0,0,1-1.265,1.914,5.026,5.026,0,0,1-.551.471c4.574-.309,7.77-2.661,7.77-5.63a2.51,2.51,0,0,0-2.581-2.757m-.259,5.937a4.739,4.739,0,0,0,.665-5.207c1.9,1.135,1.558,4.656-.665,5.207" transform="translate(1.515 0.564)" fill="#072d5f"/>
      <path id="Path_143" data-name="Path 143" d="M136.629,29.414a6.687,6.687,0,0,0-4.688,1.979l-.308.357a8.477,8.477,0,0,0-1.557,2.563,4.619,4.619,0,0,1,2.043-.666c2.174,0,2.531,3.877,5.4,3.877a3.6,3.6,0,0,0,3.585-3.763,4.4,4.4,0,0,0-4.477-4.347m.73,1.735a6.233,6.233,0,0,0-3.228-.373,6.009,6.009,0,0,1,1.461-.5,4.585,4.585,0,0,1,1.022-.114,3.839,3.839,0,0,1,3.91,3.812c0,.114-.016.195-.016.292a6.173,6.173,0,0,0-3.147-3.115" transform="translate(1.771 0.401)" fill="#072d5f"/>
      <path id="Path_144" data-name="Path 144" d="M130.828,49.051c0,.227-.1.6-.422.6H120.56c-.342,0-.422-.373-.422-.6a2.042,2.042,0,0,1,.584-1.281c1.606-1.785,1.9-5.4,1.9-7.641,0-2.206-.292-5.531-1.9-7.283a1.721,1.721,0,0,1-.584-1.136.709.709,0,0,1,.535-.73,59.878,59.878,0,0,1,9.116-2.238.844.844,0,0,1,.941.843,2.394,2.394,0,0,1-.488,1.135,9.876,9.876,0,0,0-1.313,3.991,22.152,22.152,0,0,0-.211,3.747c0,2.076.16,7.8,1.606,9.408a1.907,1.907,0,0,1,.5,1.184" transform="translate(1.636 0.392)" fill="#072d5f"/>
      <path id="Path_145" data-name="Path 145" d="M117.86,34.326c0-4.121-3.957-5.792-8.029-5.792-6.522,0-10.643,4.315-10.643,10.707a10.292,10.292,0,0,0,3.554,8.222,4.96,4.96,0,0,1,3.7-1.654,3.551,3.551,0,0,1,.925.1,26.027,26.027,0,0,1-1.33-3.974c4.444-.05,11.825-1.931,11.825-7.607m-6.569,2.254h-.016a5.792,5.792,0,0,1-1.833.6,3.432,3.432,0,0,0-.666.131,3.563,3.563,0,0,0-.941.389.05.05,0,0,0-.032.015.427.427,0,0,0-.146.082,4.577,4.577,0,0,0-1.606,1.639,2.825,2.825,0,0,0-.357.631c-.616-4.525,1.053-8.16,3.974-8.743a2.728,2.728,0,0,1,1.2-.031h.016a2.406,2.406,0,0,1,2.011,2.027,2.9,2.9,0,0,1-1.606,3.261" transform="translate(1.351 0.389)" fill="#072d5f"/>
      <path id="Path_146" data-name="Path 146" d="M95.868,42.453c-1.914.178-4.088,1.379-6.261,3.423a11.145,11.145,0,0,1-.227-2.32c0-1.752.341-3.584.341-6.407,0-.957.032-4.7-2.563-4.7a6.831,6.831,0,0,0-3.471,1.46c-.131,2.028-.747,4.153-.747,6.716,0,1.833.324,5.32,1.947,7.121a2.078,2.078,0,0,1,.616,1.314c0,.227-.081.6-.405.6H75.235c-.324,0-.422-.373-.422-.665a1.8,1.8,0,0,1,.5-1.119c1.524-1.7,2.011-6.958,2.011-9.279,0-1.508-.195-6.391-2.514-6.391-1.152,0-2.79,1.216-4.039,2.027a29.648,29.648,0,0,0-.292,4.234c0,2.077.162,7.8,1.606,9.408a1.822,1.822,0,0,1,.5,1.184c0,.227-.081.6-.405.6H62.322c-.324,0-.405-.373-.405-.6a2.03,2.03,0,0,1,.568-1.281c1.606-1.784,1.9-5.4,1.9-7.64,0-2.207-.292-5.532-1.9-7.284a1.706,1.706,0,0,1-.568-1.135.7.7,0,0,1,.5-.73,70.9,70.9,0,0,1,9.23-2.239.8.8,0,0,1,.86.843,1.783,1.783,0,0,1-.487,1.136,4.687,4.687,0,0,0-.957,1.93c2.433-1.93,5.693-4.169,8.662-4.169,2.352,0,3.665,1.444,3.958,3.8,2.141-1.638,4.817-3.293,7.477-3.293,3.618,0,4.72,3.05,4.72,6.943a54.554,54.554,0,0,0-.016,6.521" transform="translate(0.843 0.388)" fill="#072d5f"/>
      <path id="Path_147" data-name="Path 147" d="M58.311,41.609c-1.72,0-3.212,1.249-3.082,4.137.032.973-.032,3.1-2.384,3.1-3.309,0-4.3-4.153-5.077-6.91,4.445-.049,11.825-1.931,11.825-7.608,0-4.12-3.942-5.791-8.029-5.791-6.522,0-10.658,4.315-10.658,10.706,0,6.927,4.965,10.772,11.274,10.772,5.077,0,8.742-2.466,8.742-5.646a2.517,2.517,0,0,0-2.611-2.757M51.4,31.324a2.525,2.525,0,0,1,3.228,1.995c.357,1.687-.6,3.391-3.454,3.861a3.982,3.982,0,0,0-.666.13,3.611,3.611,0,0,0-.941.389c-.016,0-.032,0-.032.016a.425.425,0,0,0-.146.081,4.6,4.6,0,0,0-1.606,1.638,3.623,3.623,0,0,0-.357.632c-.616-4.525,1.054-8.159,3.973-8.742m6.651,16.221a4.774,4.774,0,0,0,.681-5.207c1.9,1.135,1.557,4.656-.681,5.207" transform="translate(0.557 0.389)" fill="#072d5f"/>
      <path id="Path_148" data-name="Path 148" d="M39.561,38.078c-2.222,1.022-2.14,8.127-.989,11.355.455,1.217-.4,1.007-1.118.893A13.2,13.2,0,0,1,32.879,48.7a12.791,12.791,0,0,1-6.1,1.412c-7.624,0-13.5-5.451-13.5-14.242,0-8.662,5.774-14.891,13.609-14.891,6.65,0,11.144,4.427,11.144,7.769a2.525,2.525,0,0,1-2.644,2.726c-1.72,0-3.212-1.25-3.5-3.7-.324-2.758-2.3-5.612-5.11-5.612-3.925,0-6.895,5.661-6.895,13.187,0,7.17,2.646,13.594,7.4,13.594,3.212,0,4.332-3.017,4.657-4.883.13-2.562-.5-5.369-1.817-5.985-.779-.373-.746-1.7-.211-1.7h9.862c.534,0,.568,1.33-.212,1.7" transform="translate(0.181 0.286)" fill="#072d5f"/>
      <path id="Path_149" data-name="Path 149" d="M53.711,32.978a4.749,4.749,0,0,0-4.981,1.687c.115-2.287,3.489-3.308,4.981-1.687" transform="translate(0.664 0.439)" fill="#072d5f"/>
      <path id="Path_150" data-name="Path 150" d="M111.963,32.978a3.514,3.514,0,0,0-.405-.065A4.618,4.618,0,0,0,107,34.664c.1-2.076,2.888-3.114,4.51-2.076V32.6a1.989,1.989,0,0,1,.454.373" transform="translate(1.457 0.439)" fill="#072d5f"/>
      <path id="Path_151" data-name="Path 151" d="M74.533,57.847a2.4,2.4,0,0,0-.973-.276c-1.006,0-1.169,1.606-2.515,1.606a1.587,1.587,0,0,1-1.67-1.541,1.94,1.94,0,0,1,2.077-1.8,3.022,3.022,0,0,1,.55.049,3.78,3.78,0,0,1,1.655.762l.146.146a3.842,3.842,0,0,1,.73,1.054" transform="translate(0.945 0.761)" fill="#072d5f"/>
      <path id="Path_152" data-name="Path 152" d="M120.467,63.546c-.131-.13-.747.341-1.25.665-3.52,2.5-6.521,4.266-6.894,4.477-1.573.908-4.12,1.573-8.37.487a.468.468,0,0,1-.146-.843,40.926,40.926,0,0,0,3.439-2.677c2.465-2.173,3.8-3.391,3.812-5.093a3.135,3.135,0,0,0-1.509-2.92,2.856,2.856,0,0,0-2.595.178.471.471,0,0,1-.649-.584c.681-2.141,1.395-4.315,2.076-6.456a.382.382,0,0,0,.032-.13,1.208,1.208,0,0,0-.86-1.2,1.14,1.14,0,0,0-1.2.389l-.1.146q-1.9,5.645-3.812,11.29a.344.344,0,0,1-.162.211c-1.508,1.119-3.309,2.45-5.337,4.007-1.509,1.135-3.018,2.238-4.526,3.374-.162.114-.324.227-.47.341-3.407,2.53-4.461,3.341-6.035,3.26a3.885,3.885,0,0,1-2.935-1.411,3.567,3.567,0,0,1-.195-3.212,4.518,4.518,0,0,1,.487-1.022.5.5,0,0,1,.259-.178,19.966,19.966,0,0,0,3.245-1.427c3.26-1.833,5.029-4.1,7.477-7.316,3.374-4.445,4.023-6.731,4.12-7.867a8.314,8.314,0,0,0,.016-1.444,3.2,3.2,0,0,0-.86-2.352c-1.395-.957-4.055,1.2-5.661,2.855a7.432,7.432,0,0,0-.616.649,45.925,45.925,0,0,0-7.4,9.765c-1.151,1.881-2.109,3.5-2.79,4.688a.539.539,0,0,1-.227.195c-2.384,1.054-4.769,2.076-7.153,3.13-.908.389-1.8.8-2.709,1.185a1.947,1.947,0,0,1-2.108-.065,1.6,1.6,0,0,1-.438-1.315,2.869,2.869,0,0,1,.016-.373A4.751,4.751,0,0,1,69.873,64a.291.291,0,0,0,.081-.114c.324-.6.632-1.2.957-1.8a.508.508,0,0,0-.178-.649c-.324-.178-.665-.357-.989-.551a.479.479,0,0,0-.616.13c-.7.941-1.395,1.881-2.108,2.807a.084.084,0,0,1-.032.065A11.735,11.735,0,0,1,65.071,66.4a9.4,9.4,0,0,1-.843.778,12.17,12.17,0,0,1-4.3,2.32.468.468,0,0,1-.584-.308A8.6,8.6,0,0,1,58.891,67c0-.1-.016-.178-.016-.292-.114-2.222.633-3.195-.016-4.218a3.2,3.2,0,0,0-2.9-1.135,3.739,3.739,0,0,0-2.335,1.151.466.466,0,0,1-.795-.276,2.808,2.808,0,0,0-.957-1.8,3.531,3.531,0,0,0-2.969-.422c-2.254.519-3.634,2.644-3.877,2.449-.162-.13.616-1.022.341-1.476-.276-.438-1.427-.211-2.465.065a.6.6,0,0,0-.292.276L39.49,68.152c-.016.016-.016.032-.032.049l-.081.293L39.069,69.5l-.211.714s-.389,1.46.7,1.865a1.68,1.68,0,0,0,1.3.1.486.486,0,0,0,.211-.195c.308-.568.6-1.119.893-1.638.178-.324.357-.632.535-.941.73-1.315,1.427-2.466,2.011-3.455a21.166,21.166,0,0,1,2.465-3.1c1.574-1.687,2.142-1.8,2.45-1.687.308.146.422.551.535.892a3.573,3.573,0,0,1-.308,2.158c-.259.795-.454,1.622-.649,2.416-.081.373-.162.714-.276,1.087-.259,1.007-.405,1.623-.1,2.19a1.374,1.374,0,0,0,.762.665c.195.065.746.178,1.7-.584,1.2-.941,1.444-2,2.061-3.212a8.151,8.151,0,0,1,.746-1.249,8.456,8.456,0,0,1,1.151-1.265.474.474,0,0,1,.778.454,8.158,8.158,0,0,0-.13,2.157,8.464,8.464,0,0,0,.211,1.363,4.376,4.376,0,0,0,1.72,2.952c1.541.876,3.584-.13,4.98-.795a10.511,10.511,0,0,0,2.352-1.573.479.479,0,0,1,.746.146,4.036,4.036,0,0,0,1.753,1.914c1.314.665,2.725.292,5.3-.714,1.541-.6,3.373-1.395,5.58-2.482h.081c.341-.162.7-.341,1.054-.519a.471.471,0,0,1,.681.5c0,.032-.016.049-.016.081a6.187,6.187,0,0,0,1.023,4.8,5.691,5.691,0,0,0,2.3,1.785,5.173,5.173,0,0,0,1.006.341.317.317,0,0,0,.114.016,7.068,7.068,0,0,0,3.245-.47c.616-.259,1.233-.6,2.06-1.006,1.428-.715,2.3-1.461,5.029-3.91.341-.292.7-.616,1.087-.973.536-.471,1.363-1.217,2.417-2.158a.466.466,0,0,1,.73.551,28.948,28.948,0,0,0-1.233,3.1c-.13.357-.211.681-.308.973a15.724,15.724,0,0,0-.47,2.726c-.049.341-.1.714-.146,1.151a.925.925,0,0,0-.016.211c-.065.487-.1.908-.114,1.249,0,.649.1,1.054.405,1.281a1.577,1.577,0,0,0,1.346.032,2.63,2.63,0,0,0,1.249-1.573c.114-.308.243-.649.389-1.07.065-.162.114-.341.178-.519.114-.357.228-.762.357-1.184.13-.52.293-1.088.438-1.7a.48.48,0,0,1,.634-.324,15.019,15.019,0,0,0,5.58.892,4.286,4.286,0,0,0,.47-.032c.405-.016.795-.065,1.184-.114h.032a14.729,14.729,0,0,0,2.807-.746,16.333,16.333,0,0,0,4.834-2.838c2.222-1.882,3.957-4.445,3.7-4.688m-29.848-9.23c.211-.324,3.034-3.391,3.78-4.283.049-.049.114-.13.195-.211.341-.454.892-1.07,1.233-1.493a.474.474,0,0,1,.8.1,2.783,2.783,0,0,1,.211.942c.195,1.946-4.915,8.126-5.3,8.58-.017.032-.033.032-.05.049-4.622,4.1-6.958,6.132-7.283,5.824-.341-.325.616-2.255,6.423-9.506m12.588,11.371c.324-1.07.632-2.141.941-3.212a.63.63,0,0,1,.1-.178,8.529,8.529,0,0,1,4.283-2.789c.016,0,.016,0,.016-.016a.473.473,0,0,1,.568.5,4.3,4.3,0,0,1-.292,1.379,6.278,6.278,0,0,1-2.4,2.726c-.634.535-1.461,1.233-2.434,2.076a.477.477,0,0,1-.778-.487" transform="translate(0.528 0.627)" fill="#072d5f"/>
    </g>
  </g>
</svg>
