<svg id="Group_278" data-name="Group 278" xmlns="http://www.w3.org/2000/svg" xmlns:xlink="http://www.w3.org/1999/xlink" width="1637.199" height="1125.216" viewBox="0 0 1637.199 1125.216">
  <defs>
    <clipPath id="clip-path">
      <rect id="Rectangle_82" data-name="Rectangle 82" width="1637.199" height="1125.217" fill="#ffbd00"/>
    </clipPath>
  </defs>
  <g id="Group_273" data-name="Group 273" transform="translate(0 0)" clip-path="url(#clip-path)">
    <path id="Path_136" data-name="Path 136" d="M1184.388,222.388c21.645-8.58,39.755,3.264,45.807,18.539,10.1,25.459-23.062,42.236-15.462,61.418,2.145,5.418,7.321,10.771,13.233,15.844a82.565,82.565,0,0,1-28.163-4.812l-4.308-1.529a70.679,70.679,0,0,1-28.816-24.638,56.037,56.037,0,0,1-5.26-9.95c-8.384-21.141.541-45.975,22.969-54.872m-9.111,49.025a42.1,42.1,0,0,0,3.5,7.526,48.841,48.841,0,0,0,7.619,9.8,47.9,47.9,0,0,1-5.5-25.45c1.24-18.11,12.72-29.366,15.583-32.015-.746.177-1.5.4-2.276.662-16.814,5.7-24.293,23.622-18.921,39.475" transform="translate(-675.128 -14.804)" fill="#ffbd00"/>
    <path id="Path_137" data-name="Path 137" d="M100.771,472.992c59.74,20.1,126.8-45.238,76.768-107.114-31.875-39.41-24.788-68.776-7.777-83.473.261-.224.522-.448.783-.662,20.4-16.8,53.967-13.1,53.193,18.661-1.445,59.124,58.956,80.89,94.45,44.11s106.7-80.984,187.575,11.032,177.149,26.932,106.284-35.792,43.849-128.712,77.477-61.195v.009c45.63,91.605,67.7,98.609,79.93,94.991,24.526-7.274,7.88-65.9,41.135-91.82,24.163-18.819,61.9-1.716,92.986,2.854,220.233,32.341,18.4-190.876,82.923-252.64C1003.4-4.237,1038.45-3.6,1054.341,11.57c19.5,18.623,13.019,61.959,8.309,93.47-2.593,17.383-5.437,24.172-2.723,36.873,3.833,17.858,17.262,40.9,39.634,46.973,19.3,5.25,36.3-4.56,56.336-16.124,27.762-16.012,70.045-67,136.909-58.919a1.191,1.191,0,0,1,.271.065c14.762,3.637,28.611,10.6,38.356,22.1.653.765,1.278,1.557,1.893,2.359,76.535,100.875,9.167,208.753-117.782,228.468-126.073,19.574-69.83,185.234,17.784,95.876s178.669-43.261,155.42,31.642,30.271,127.22,93.023,97.928c88.369-41.247,150.151,10.482,155.113,63.4,4.635,49.444-42.357,100.26-108.671,67.872-56.625-27.65-131.584,28.452-89.983,96.277,24.3,39.624,17.215,66.631,1.39,80.377l-1.017.858c-.047.037-.093.075-.13.1-22.195,17.943-59.721,11.032-54.527-22.391,9.083-58.443-47.99-87.847-87.95-55.963s-116.272,66.5-184.563-35.223S939.254,737.96,1001.4,809.329s-60.141,121.951-84.742,50.647c-17.914-51.906-104.475-31.819-150.264-17.038-23.426,7.563-44.642,21.262-60.076,40.454-9.95,12.384-17.672,27.1-18.1,44.185-.513,20.3,9.717,26.149,24.881,59.693,12.459,27.594,41.5,91.876,16.935,121.233-15.023,17.952-49.51,22.139-67.228,9.158-21.747-15.947-20.936-59.759-20.339-91.606.326-17.569,2.266-24.675-2.07-36.92-6.1-17.206-22.4-38.319-45.378-41.452-19.826-2.7-37.023,7.339-53.771,23.277-23.473,22.353-18.334,25.188-43.047,45.155-29.991,24.228-62.118,33.292-85.078,31a75.566,75.566,0,0,1-47.793-23.715q-3.078-3.329-5.9-6.7l-.448-.532c-73.449-88.146-19.976-195.5,98-229.932,122.473-35.726,45.257-192.732-30.047-92.771s-171.572,66.025-158.209-11.256-46.479-122.231-104.913-85.068c-82.289,52.344-150.235,9.036-162-42.777-11-48.437,29.021-104.9,98.963-81.375M1281.289,304.786c39.531-8.2,61.409-46.572,53.678-83.846a95.344,95.344,0,0,0-5.8-17.952,111.474,111.474,0,0,0-14.473-24.237,108.71,108.71,0,0,1,5.334,58.966c-7.824,40.52-36.864,62.743-44.045,67.928,1.716-.2,3.5-.485,5.306-.858m295.062,409.207c27.184-5.428,42.394-31.661,37.274-57.3a65.356,65.356,0,0,0-3.9-12.357,76.729,76.729,0,0,0-9.811-16.711,74.631,74.631,0,0,1,3.376,40.51c-5.577,27.79-25.627,42.9-30.588,46.423,1.184-.121,2.415-.317,3.646-.569M1168.785,784.3c14.6,28.853,48.847,37.759,76.06,23.985a75.39,75.39,0,0,0,12.664-8.235,89.189,89.189,0,0,0,15.723-16.255,87.033,87.033,0,0,1-44.483,16.45c-32.975,2.415-56.233-15.406-61.735-19.873.513,1.3,1.11,2.611,1.772,3.926M953.606,870.038a44.914,44.914,0,0,0,8.906,1.595,52.935,52.935,0,0,0,13.513-.643,52.139,52.139,0,0,1-26.14-11.051c-15.378-12.459-18.213-29.758-18.791-33.964-.3.774-.588,1.585-.83,2.434-5.455,18.576,5.829,36.482,23.342,41.629M652.622,270.617c16.851,10.351,21.906,27.137,23.015,31.241.205-.8.373-1.651.513-2.527,3-19.117-10.51-35.419-28.536-38.254a46.368,46.368,0,0,0-9.027-.438,53.428,53.428,0,0,0-13.317,2.4,52.1,52.1,0,0,1,27.352,7.582M383,347.525c32.378-6.668,57.744,8,63.787,11.713-.672-1.212-1.436-2.443-2.266-3.656C426.3,328.855,391.2,324.463,366,341.631a76.471,76.471,0,0,0-11.5,9.81A89.2,89.2,0,0,0,341.017,369.6,87.017,87.017,0,0,1,383,347.525" transform="translate(0 -0.001)" fill="#ffbd00" fill-rule="evenodd"/>
    <path id="Path_138" data-name="Path 138" d="M578.706,910.9c-1.436-5.651-5.866-11.629-11.069-17.43a82.643,82.643,0,0,1,27.305,8.421l4.075,2.08A70.655,70.655,0,0,1,624.4,932.122a55.887,55.887,0,0,1,3.926,10.557c5.577,22.046-6.491,45.518-29.879,51.431-22.568,5.707-39-8.384-43.028-24.3-6.715-26.559,28.34-38.906,23.286-58.91m11.247,72.479c17.411-3.479,27.156-20.292,23.874-36.706a41.877,41.877,0,0,0-2.49-7.908,49.3,49.3,0,0,0-6.285-10.706A47.777,47.777,0,0,1,607.205,954c-3.572,17.8-16.413,27.473-19.584,29.739.755-.084,1.539-.205,2.331-.364" transform="translate(490.36 -60.256)" fill="#ffbd00"/>
  </g>
</svg>
