<svg xmlns="http://www.w3.org/2000/svg" xmlns:xlink="http://www.w3.org/1999/xlink" width="1755.596" height="1206.589" viewBox="0 0 1755.596 1206.589">
  <defs>
    <clipPath id="clip-path">
      <rect id="Rectangle_99" data-name="Rectangle 99" width="1755.596" height="1206.589" transform="translate(0 0.001)" fill="none"/>
    </clipPath>
  </defs>
  <g id="Group_313" data-name="Group 313" transform="translate(0 -0.001)">
    <g id="Group_313-2" data-name="Group 313" clip-path="url(#clip-path)">
      <path id="Path_159" data-name="Path 159" d="M1209.508,222.6c-23.21-9.2-42.63,3.5-49.12,19.88-10.83,27.3,24.73,45.29,16.58,65.86-2.3,5.81-7.85,11.55-14.19,16.99a88.535,88.535,0,0,0,30.2-5.16l4.62-1.64a75.866,75.866,0,0,0,30.9-26.42,60.789,60.789,0,0,0,5.64-10.67c8.99-22.67-.58-49.3-24.63-58.84m9.77,52.57a45.477,45.477,0,0,1-3.75,8.07,52.664,52.664,0,0,1-8.17,10.51,51.381,51.381,0,0,0,5.9-27.29c-1.33-19.42-13.64-31.49-16.71-34.33.8.19,1.61.43,2.44.71,18.03,6.11,26.05,25.33,20.29,42.33" fill="#072d5f"/>
      <path id="Path_160" data-name="Path 160" d="M1219.278,275.167a45.477,45.477,0,0,1-3.75,8.07,52.664,52.664,0,0,1-8.17,10.51,51.381,51.381,0,0,0,5.9-27.29c-1.33-19.42-13.64-31.49-16.71-34.33.8.19,1.61.43,2.44.71,18.03,6.11,26.05,25.33,20.29,42.33" fill="#fff"/>
      <path id="Path_161" data-name="Path 161" d="M1647.538,507.2c-64.06,21.55-135.97-48.51-82.32-114.86,34.18-42.26,26.58-73.75,8.34-89.51-.28-.24-.56-.48-.84-.71-21.87-18.01-57.87-14.05-57.04,20.01,1.55,63.4-63.22,86.74-101.28,47.3s-114.42-86.84-201.14,11.83-189.96,28.88-113.97-38.38-47.02-138.02-83.08-65.62v.01c-48.93,98.23-72.6,105.74-85.71,101.86-26.3-7.8-8.45-70.67-44.11-98.46-25.91-20.18-66.38-1.84-99.71,3.06-236.16,34.68-19.73-204.68-88.92-270.91-18.13-17.36-55.71-16.68-72.75-.41-20.91,19.97-13.96,66.44-8.91,100.23,2.78,18.64,5.83,25.92,2.92,39.54-4.11,19.15-18.51,43.86-42.5,50.37-20.7,5.63-38.93-4.89-60.41-17.29-29.77-17.17-75.11-71.85-146.81-63.18a.947.947,0,0,0-.29.07c-15.83,3.9-30.68,11.37-41.13,23.7-.7.82-1.37,1.67-2.03,2.53-82.07,108.17-9.83,223.85,126.3,244.99,135.19,20.99,74.88,198.63-19.07,102.81s-191.59-46.39-166.66,33.93-32.46,136.42-99.75,105.01C71.908,590.877,5.658,646.347.338,703.1c-4.97,53.02,45.42,107.51,116.53,72.78,60.72-29.65,141.1,30.51,96.49,103.24-26.06,42.49-18.46,71.45-1.49,86.19l1.09.92c.05.04.1.08.14.11,23.8,19.24,64.04,11.83,58.47-24.01-9.74-62.67,51.46-94.2,94.31-60.01s124.68,71.31,197.91-37.77,184.63-53.22,117.99,23.31,64.49,130.77,90.87,54.31c19.21-55.66,112.03-34.12,161.13-18.27,25.12,8.11,47.87,22.8,64.42,43.38,10.67,13.28,18.95,29.06,19.41,47.38.55,21.77-10.42,28.04-26.68,64.01-13.36,29.59-44.5,98.52-18.16,130,16.11,19.25,53.09,23.74,72.09,9.82,23.32-17.1,22.45-64.08,21.81-98.23-.35-18.84-2.43-26.46,2.22-39.59,6.54-18.45,24.02-41.09,48.66-44.45,21.26-2.9,39.7,7.87,57.66,24.96,25.17,23.97,19.66,27.01,46.16,48.42,32.16,25.98,66.61,35.7,91.23,33.24a81.129,81.129,0,0,0,51.25-25.43q3.3-3.57,6.33-7.18l.48-.57c78.76-94.52,21.42-209.64-105.09-246.56-131.33-38.31-48.53-206.67,32.22-99.48s183.98,70.8,169.65-12.07,49.84-131.07,112.5-91.22c88.24,56.13,161.1,9.69,173.72-45.87,11.8-51.94-31.12-112.49-106.12-87.26M381.648,326.817c-42.39-8.79-65.85-49.94-57.56-89.91a101.979,101.979,0,0,1,6.22-19.25,119.613,119.613,0,0,1,15.52-25.99,116.579,116.579,0,0,0-5.72,63.23c8.39,43.45,39.53,67.28,47.23,72.84-1.84-.21-3.75-.52-5.69-.92m-316.4,438.8c-29.15-5.82-45.46-33.95-39.97-61.44a70.079,70.079,0,0,1,4.18-13.25,82.28,82.28,0,0,1,10.52-17.92,79.932,79.932,0,0,0-3.62,43.44c5.98,29.8,27.48,46,32.8,49.78-1.27-.13-2.59-.34-3.91-.61m437.04,75.39c-15.66,30.94-52.38,40.49-81.56,25.72a80.229,80.229,0,0,1-13.58-8.83,94.986,94.986,0,0,1-16.86-17.43,93.238,93.238,0,0,0,47.7,17.64c35.36,2.59,60.3-16.52,66.2-21.31-.55,1.39-1.19,2.8-1.9,4.21m230.74,91.94a47.722,47.722,0,0,1-9.55,1.71,56.284,56.284,0,0,1-14.49-.69,55.857,55.857,0,0,0,28.03-11.85c16.49-13.36,19.53-31.91,20.15-36.42.32.83.63,1.7.89,2.61,5.85,19.92-6.25,39.12-25.03,44.64m322.75-642.77c-18.07,11.1-23.49,29.1-24.68,33.5-.22-.86-.4-1.77-.55-2.71-3.22-20.5,11.27-37.98,30.6-41.02a50.516,50.516,0,0,1,9.68-.47,57.749,57.749,0,0,1,14.28,2.57,55.936,55.936,0,0,0-29.33,8.13m313.52,91.31a93.109,93.109,0,0,0-24.4-8.84c-34.72-7.15-61.92,8.58-68.4,12.56.72-1.3,1.54-2.62,2.43-3.92,19.54-28.66,57.18-33.37,84.2-14.96a83.6,83.6,0,0,1,12.33,10.52,96.581,96.581,0,0,1,14.46,19.47,94.232,94.232,0,0,0-20.62-14.83" fill="#072d5f" fill-rule="evenodd"/>
      <path id="Path_162" data-name="Path 162" d="M387.338,327.737c-1.84-.21-3.75-.52-5.69-.92-42.39-8.79-65.85-49.94-57.56-89.91a101.979,101.979,0,0,1,6.22-19.25,119.613,119.613,0,0,1,15.52-25.99,116.579,116.579,0,0,0-5.72,63.23c8.39,43.45,39.53,67.28,47.23,72.84" fill="#fff" fill-rule="evenodd"/>
      <path id="Path_163" data-name="Path 163" d="M69.158,766.227c-1.27-.13-2.59-.34-3.91-.61-29.15-5.82-45.46-33.95-39.97-61.44a70.079,70.079,0,0,1,4.18-13.25,82.28,82.28,0,0,1,10.52-17.92,79.932,79.932,0,0,0-3.62,43.44c5.98,29.8,27.48,46,32.8,49.78" fill="#fff" fill-rule="evenodd"/>
      <path id="Path_164" data-name="Path 164" d="M504.188,836.8c-.55,1.39-1.19,2.8-1.9,4.21-15.66,30.94-52.38,40.49-81.56,25.72a80.229,80.229,0,0,1-13.58-8.83,94.986,94.986,0,0,1-16.86-17.43,93.238,93.238,0,0,0,47.7,17.64c35.36,2.59,60.3-16.52,66.2-21.31" fill="#fff" fill-rule="evenodd"/>
      <path id="Path_165" data-name="Path 165" d="M733.028,932.947a47.722,47.722,0,0,1-9.55,1.71,56.284,56.284,0,0,1-14.49-.69,55.857,55.857,0,0,0,28.03-11.85c16.49-13.36,19.53-31.91,20.15-36.42.32.83.63,1.7.89,2.61,5.85,19.92-6.25,39.12-25.03,44.64" fill="#fff" fill-rule="evenodd"/>
      <path id="Path_166" data-name="Path 166" d="M1085.108,282.047a55.936,55.936,0,0,0-29.33,8.13c-18.07,11.1-23.49,29.1-24.68,33.5-.22-.86-.4-1.77-.55-2.71-3.22-20.5,11.27-37.98,30.6-41.02a50.516,50.516,0,0,1,9.68-.47,57.749,57.749,0,0,1,14.28,2.57" fill="#fff" fill-rule="evenodd"/>
      <path id="Path_167" data-name="Path 167" d="M1389.918,396.317a94.232,94.232,0,0,0-20.62-14.83,93.109,93.109,0,0,0-24.4-8.84c-34.72-7.15-61.92,8.58-68.4,12.56.72-1.3,1.54-2.62,2.43-3.92,19.54-28.66,57.18-33.37,84.2-14.96a83.6,83.6,0,0,1,12.33,10.52,96.581,96.581,0,0,1,14.46,19.47" fill="#fff" fill-rule="evenodd"/>
      <path id="Path_168" data-name="Path 168" d="M609.218,912.147c1.54-6.06,6.29-12.47,11.87-18.69a88.85,88.85,0,0,0-29.28,9.03l-4.37,2.23a75.75,75.75,0,0,0-27.22,30.19,60.443,60.443,0,0,0-4.21,11.32c-5.98,23.64,6.96,48.81,32.04,55.15,24.2,6.12,41.82-8.99,46.14-26.06,7.2-28.48-30.39-41.72-24.97-63.17m-12.06,77.73v-.01c-18.67-3.73-29.12-21.76-25.6-39.36a44.635,44.635,0,0,1,2.67-8.48,52.953,52.953,0,0,1,6.74-11.48,51.277,51.277,0,0,0-2.31,27.83c3.83,19.09,17.6,29.46,21,31.89-.81-.1-1.65-.22-2.5-.39" fill="#072d5f"/>
      <path id="Path_169" data-name="Path 169" d="M597.158,989.877v-.01c-18.67-3.73-29.12-21.76-25.6-39.36a44.635,44.635,0,0,1,2.67-8.48,52.953,52.953,0,0,1,6.74-11.48,51.277,51.277,0,0,0-2.31,27.83c3.83,19.09,17.6,29.46,21,31.89-.81-.1-1.65-.22-2.5-.39" fill="#fff"/>
    </g>
  </g>
</svg>
