<svg id="Group_282" data-name="Group 282" xmlns="http://www.w3.org/2000/svg" xmlns:xlink="http://www.w3.org/1999/xlink" width="37.658" height="37.658" viewBox="0 0 37.658 37.658">
  <defs>
    <clipPath id="clip-path">
      <rect id="Rectangle_38" data-name="Rectangle 38" width="37.658" height="37.658" fill="#ffbd00"/>
    </clipPath>
  </defs>
  <g id="Group_99" data-name="Group 99" transform="translate(0 0)" clip-path="url(#clip-path)">
    <path id="Path_42" data-name="Path 42" d="M18.935,0c-5.143,0-5.787.022-7.807.114a13.888,13.888,0,0,0-4.6.881A9.271,9.271,0,0,0,3.179,3.177,9.285,9.285,0,0,0,.995,6.532a13.883,13.883,0,0,0-.88,4.6C.022,13.148,0,13.793,0,18.936s.022,5.787.115,7.806a13.872,13.872,0,0,0,.88,4.6,9.28,9.28,0,0,0,2.184,3.354,9.276,9.276,0,0,0,3.354,2.184,13.9,13.9,0,0,0,4.6.88c2.02.092,2.664.114,7.807.114s5.787-.022,7.807-.114a13.911,13.911,0,0,0,4.6-.88,9.687,9.687,0,0,0,5.538-5.539,13.872,13.872,0,0,0,.88-4.6c.092-2.019.115-2.664.115-7.806s-.022-5.787-.115-7.808a13.883,13.883,0,0,0-.88-4.6,9.28,9.28,0,0,0-2.184-3.354A9.278,9.278,0,0,0,31.339.995a13.894,13.894,0,0,0-4.6-.881C24.722.022,24.078,0,18.935,0m0,3.412c5.056,0,5.654.02,7.652.111a10.461,10.461,0,0,1,3.516.652A5.863,5.863,0,0,1,32.28,5.591,5.86,5.86,0,0,1,33.7,7.768a10.479,10.479,0,0,1,.652,3.515c.091,2,.111,2.6.111,7.652s-.019,5.654-.111,7.651A10.492,10.492,0,0,1,33.7,30.1,6.274,6.274,0,0,1,30.1,33.7a10.457,10.457,0,0,1-3.516.652c-2,.09-2.6.11-7.652.11s-5.655-.02-7.651-.11A10.458,10.458,0,0,1,7.768,33.7a5.859,5.859,0,0,1-2.177-1.416A5.867,5.867,0,0,1,4.174,30.1a10.492,10.492,0,0,1-.652-3.516c-.091-2-.111-2.6-.111-7.651s.019-5.655.111-7.652a10.479,10.479,0,0,1,.652-3.515A5.86,5.86,0,0,1,5.591,5.591,5.859,5.859,0,0,1,7.768,4.174a10.462,10.462,0,0,1,3.516-.652c2-.091,2.594-.111,7.651-.111" transform="translate(-0.015 0)" fill="#ffbd00"/>
    <path id="Path_43" data-name="Path 43" d="M26.151,33.27a6.312,6.312,0,1,1,6.311-6.312,6.312,6.312,0,0,1-6.311,6.312m0-16.035a9.724,9.724,0,1,0,9.724,9.723,9.723,9.723,0,0,0-9.724-9.723" transform="translate(-7.663 -8.023)" fill="#ffbd00"/>
    <path id="Path_44" data-name="Path 44" d="M53.824,14.537a2.272,2.272,0,1,1-2.272-2.273,2.272,2.272,0,0,1,2.272,2.273" transform="translate(-22.956 -5.709)" fill="#ffbd00"/>
  </g>
</svg>
