<svg id="Group_239" data-name="Group 239" xmlns="http://www.w3.org/2000/svg" xmlns:xlink="http://www.w3.org/1999/xlink" width="50.513" height="50.513" viewBox="0 0 50.513 50.513">
  <defs>
    <clipPath id="clip-path">
      <rect id="Rectangle_38" data-name="Rectangle 38" width="50.513" height="50.513" fill="#fffaec"/>
    </clipPath>
  </defs>
  <g id="Group_99" data-name="Group 99" transform="translate(0 0)" clip-path="url(#clip-path)">
    <path id="Path_42" data-name="Path 42" d="M25.4,0c-6.9,0-7.762.029-10.472.153A18.629,18.629,0,0,0,8.762,1.334a12.436,12.436,0,0,0-4.5,2.928,12.455,12.455,0,0,0-2.929,4.5,18.623,18.623,0,0,0-1.18,6.165C.03,17.637,0,18.5,0,25.4s.03,7.762.154,10.471a18.607,18.607,0,0,0,1.18,6.165,12.449,12.449,0,0,0,2.929,4.5,12.442,12.442,0,0,0,4.5,2.93,18.652,18.652,0,0,0,6.165,1.18c2.71.123,3.574.153,10.472.153s7.762-.029,10.472-.153a18.66,18.66,0,0,0,6.165-1.18,12.993,12.993,0,0,0,7.428-7.43,18.607,18.607,0,0,0,1.18-6.165c.124-2.709.154-3.574.154-10.471s-.03-7.763-.154-10.473a18.623,18.623,0,0,0-1.18-6.165,12.447,12.447,0,0,0-2.93-4.5,12.445,12.445,0,0,0-4.5-2.928A18.637,18.637,0,0,0,35.872.153C33.162.029,32.3,0,25.4,0m0,4.576c6.781,0,7.584.027,10.264.149a14.032,14.032,0,0,1,4.716.874A7.865,7.865,0,0,1,43.3,7.5a7.861,7.861,0,0,1,1.9,2.921,14.056,14.056,0,0,1,.874,4.715c.123,2.678.148,3.481.148,10.264s-.026,7.584-.148,10.263a14.074,14.074,0,0,1-.874,4.716,8.416,8.416,0,0,1-4.821,4.82,14.027,14.027,0,0,1-4.716.875c-2.678.121-3.482.148-10.264.148s-7.586-.027-10.263-.148A14.029,14.029,0,0,1,10.42,45.2,7.859,7.859,0,0,1,7.5,43.3a7.87,7.87,0,0,1-1.9-2.92,14.074,14.074,0,0,1-.874-4.716C4.6,32.984,4.577,32.18,4.577,25.4s.026-7.586.148-10.264A14.056,14.056,0,0,1,5.6,10.42,7.861,7.861,0,0,1,7.5,7.5a7.859,7.859,0,0,1,2.92-1.9,14.034,14.034,0,0,1,4.717-.874c2.678-.123,3.48-.149,10.263-.149" transform="translate(-0.02 0)" fill="#fffaec"/>
    <path id="Path_43" data-name="Path 43" d="M29.47,38.744a8.466,8.466,0,1,1,8.466-8.466,8.467,8.467,0,0,1-8.466,8.466m0-21.509A13.043,13.043,0,1,0,42.514,30.278,13.042,13.042,0,0,0,29.47,17.235" transform="translate(-4.67 -4.879)" fill="#fffaec"/>
    <path id="Path_44" data-name="Path 44" d="M55.375,15.312a3.048,3.048,0,1,1-3.048-3.048,3.047,3.047,0,0,1,3.048,3.048" transform="translate(-13.97 -3.472)" fill="#fffaec"/>
  </g>
</svg>
