<svg xmlns="http://www.w3.org/2000/svg" xmlns:xlink="http://www.w3.org/1999/xlink" width="1965.378" height="1962.59" viewBox="0 0 1965.378 1962.59">
  <defs>
    <clipPath id="clip-path">
      <rect id="Rectangle_40" data-name="Rectangle 40" width="1382.742" height="1405.36" fill="#fffaec"/>
    </clipPath>
  </defs>
  <g id="Group_232" data-name="Group 232" transform="matrix(-0.643, 0.766, -0.766, -0.643, 1965.378, 903.348)">
    <g id="Group_226" data-name="Group 226" clip-path="url(#clip-path)">
      <path id="Path_108" data-name="Path 108" d="M2.317,59.7c7.869,23.688,30.086,30.4,46.8,24.842C76.99,75.283,67.905,36.482,88.9,29.5c5.928-1.969,13.886-1.414,22.136-.057A88.718,88.718,0,0,0,87.671,9.634l-4.234-2.48A75.741,75.741,0,0,0,43.347.472a59.679,59.679,0,0,0-11.8,2.541C8.4,10.7-5.84,35.153,2.317,59.7" transform="translate(170.276 621.12)" fill="#fffaec"/>
      <path id="Path_109" data-name="Path 109" d="M2.268,45.78c.316.81.656,1.588,1.021,2.318.207-4.169,1.54-21.362,15.559-34.863A51.274,51.274,0,0,1,43.537.207a52.461,52.461,0,0,0-13.3.5,44.755,44.755,0,0,0-8.59,2.314C4.922,9.535-4.641,28.04,2.268,45.78" transform="translate(184.928 636.519)" fill="#fffaec"/>
      <path id="Path_110" data-name="Path 110" d="M338.729,793.721C260.1,812.648,235.2,672.953,335.565,687.909s87.449-108.977-43.87-111.959-144.107-91.926-138.37-146.433-53.777-89.1-101.331-47.157-97.275-80.9,21.921-83.077c85.3-1.564,92.725-101.679,35.045-136.883C41.426,121.18,60.2,49.391,107.562,25.031c50.661-26.054,133.07-.105,146.814,103.552,9.757,73.612,87.931,91.764,142.183,27.517s148.471-8.586,118.3,122.166,151.992,85.933,96.9-39.276C557.246,115.053,612.908-6.031,743.336.233a81,81,0,0,1,52.424,22.9c17.719,17.273,32.416,49.912,33.193,91.242.644,34.057-5.231,31.792-7.4,66.476-1.552,24.741,2.062,45.787,17.95,60.2,18.416,16.714,46.99,15.543,65.321,8.691,13.043-4.875,17.541-11.366,31.751-23.744,25.742-22.444,61.164-53.315,89.248-46.447,22.877,5.6,43.21,36.808,38.818,61.521-7.172,40.41-79.977,60.876-111.23,69.661-38,10.681-49.855,6.3-66.176,20.722-13.728,12.127-20.495,28.611-23.805,45.325-5.118,25.9-1.746,52.769,8.193,77.222,19.429,47.789,62.6,132.721,117.575,111.651,75.52-28.947,118.284,106.351,16.828,104.512s-72.611,119.382,58,105.342,154.8,72.5,156.158,127.292,64.851,81.391,106.578,33.647,106.931,67.623-10.985,85.216c-84.378,12.589-78.778,112.822-17.034,140.266,72.311,32.132,62.975,105.748,19.174,136.028-46.869,32.4-131.943,17.33-158.986-83.673-19.206-71.736-99.062-79.613-144.549-8.886s-146.109,27.727-133.122-105.825-161.831-65.544-91,51.484c71.326,117.851,29.178,247.537-106.428,254.227-17.367.855-33.793-5.932-47.837-16.192-.109-.077-.2-.138-.243-.178-52.724-49.336-40-119.212-45.985-153.054-4.315-24.413-7.978-45.139-25.592-57.375-20.418-14.19-48.6-9.332-65.9-.166-12.306,6.524-15.924,13.542-28.408,27.659-22.626,25.584-53.753,60.779-82.489,57.6-23.408-2.585-48.092-30.933-46.456-55.978,6.24-95.561,328.69-83.689,150.311-242.254-25.175-22.379-65.24-41.581-66.44-74.4-1.645-45.175,57.979-71.918,47.043-97.072-5.45-12.537-26.419-25.839-133.1-.158" transform="translate(-0.003 -0.002)" fill="#fffaec" fill-rule="evenodd"/>
      <path id="Path_111" data-name="Path 111" d="M103.892,22.2C93.021-.272,70.127-4.053,54.272,3.617,27.829,16.409,41.861,53.708,21.941,63.343,16.317,66.066,8.355,66.544,0,66.265A88.753,88.753,0,0,0,25.738,82.89L30.256,84.8a75.7,75.7,0,0,0,40.617,1.438A59.616,59.616,0,0,0,82.25,82.185C104.2,71.569,115.156,45.478,103.892,22.2" transform="translate(1064.648 633.907)" fill="#fffaec"/>
      <path id="Path_112" data-name="Path 112" d="M1.426,15.838C.9,16.624.425,17.418,0,18.2c3.853-2.427,20.013-12.022,40.84-7.982a55.876,55.876,0,0,1,27.1,13.841,57.3,57.3,0,0,0-8.789-11.54A48.687,48.687,0,0,0,51.7,6.308C35.406-4.523,12.918-1.444,1.426,15.838" transform="translate(971.227 582.752)" fill="#fffaec"/>
      <path id="Path_113" data-name="Path 113" d="M4.441,1.616C2.9,1.977,1.41,2.394,0,2.864c7.464,1.443,38.129,8.258,58.875,37.006a93.339,93.339,0,0,1,17.16,47.866,95.86,95.86,0,0,0,2.508-24.113,81.225,81.225,0,0,0-1.969-16.086C69.126,15.7,38.206-6.285,4.441,1.616" transform="translate(1096.411 823.262)" fill="#fffaec"/>
      <path id="Path_114" data-name="Path 114" d="M35.025,2.168C34.608,1.406,34.166.681,33.712,0c.332,4.165,1.24,21.386-10.916,36.589A51.211,51.211,0,0,1,0,52.7a52.765,52.765,0,0,0,13.124-2.216,44.837,44.837,0,0,0,8.217-3.412c15.742-8.619,22.829-28.206,13.683-44.9" transform="translate(1118.843 654.357)" fill="#fffaec"/>
      <path id="Path_115" data-name="Path 115" d="M80.472,4.947c-.936-1.738-1.925-3.4-2.95-4.947.693,9.469,2.464,48.644-25.426,83A116.5,116.5,0,0,1,0,119.269a119.4,119.4,0,0,0,29.875-4.826,101.771,101.771,0,0,0,18.744-7.61C84.56,87.486,100.991,43.068,80.472,4.947" transform="translate(704.147 1242.873)" fill="#fffaec"/>
      <path id="Path_116" data-name="Path 116" d="M54.681,3.383C54.028,2.2,53.344,1.058,52.631,0c.523,6.5,1.937,33.384-17.042,57.116A79.982,79.982,0,0,1,0,82.271a82.034,82.034,0,0,0,20.487-3.46,69.853,69.853,0,0,0,12.833-5.32C57.9,60.03,68.96,29.454,54.681,3.383" transform="translate(1269.401 1204.663)" fill="#fffaec"/>
      <path id="Path_117" data-name="Path 117" d="M64.884,16.763c.62-.713,1.2-1.438,1.718-2.16-4.129,1.913-21.4,9.332-41.524,2.634A55.869,55.869,0,0,1,0,0,57.349,57.349,0,0,0,7.216,12.585,48.952,48.952,0,0,0,13.8,19.7c14.753,12.849,37.456,12.707,51.083-2.942" transform="translate(298.102 737.867)" fill="#fffaec"/>
      <path id="Path_118" data-name="Path 118" d="M65.927,94.662c1.572-.158,3.108-.381,4.567-.66C63.277,91.6,33.75,80.877,16.9,49.685A93.31,93.31,0,0,1,6.084,0,95.63,95.63,0,0,0,.472,23.586a81.921,81.921,0,0,0-.13,16.2c3.27,32.533,31.078,58.336,65.585,54.871" transform="translate(183.576 430.973)" fill="#fffaec"/>
    </g>
  </g>
</svg>
